# xmcd
#
# Track frame offsets:
# 150
# 14984
# 29101
# 40054
# 58058
# 72934
# 89063
# 104127
# 119651
# 134409
# 152476
# 164266
#
# Disc length: 2397 seconds
#
#
# Revision: 0
# Processed by: cddbd v1.5.2PL0 Copyright (c) Steve Scherf et al.
# Submitted via: FreeRIP 2.942 
#
DISCID=b8095b0c
DTITLE=Ze Rico - Jose Rico 
DYEAR=0099
DGENRE=Sertanejo
TTITLE0=Teu Mundo
TTITLE1=Voltei para ficar
TTITLE2=as vezes preciso chorar
TTITLE3=falando sozinho
TTITLE4=mentira tambem e verdade
TTITLE5=deixe me ir
TTITLE6=confissao
TTITLE7=louca paixao
TTITLE8=recordacao
TTITLE9=vontade divina
TTITLE10=grande mulher
TTITLE11=quero ver aquele q nao chora
EXTD=Carreira Solo
EXTT0=
EXTT1=
EXTT2=
EXTT3=
EXTT4=
EXTT5=
EXTT6=
EXTT7=
EXTT8=
EXTT9=
EXTT10=
EXTT11=
PLAYORDER=
